<mxfile host="app.diagrams.net" modified="2023-05-03T17:19:58.786Z" agent="Mozilla/5.0 (Windows NT 10.0; Win64; x64) AppleWebKit/537.36 (KHTML, like Gecko) Chrome/112.0.0.0 Safari/537.36" etag="6Nt_uvQl4j79CRVqhxg8" version="21.2.7" type="device">
  <diagram name="Page-1" id="YXWqlSNjfsJIbfMtkTd4">
    <mxGraphModel dx="1050" dy="573" grid="1" gridSize="10" guides="1" tooltips="1" connect="1" arrows="1" fold="1" page="1" pageScale="1" pageWidth="850" pageHeight="1100" math="0" shadow="0">
      <root>
        <mxCell id="0" />
        <mxCell id="1" parent="0" />
        <mxCell id="Fe9dGYKsY6eeyEz0CZ78-3" value="" style="edgeStyle=orthogonalEdgeStyle;rounded=0;orthogonalLoop=1;jettySize=auto;html=1;" edge="1" parent="1" source="Fe9dGYKsY6eeyEz0CZ78-1" target="Fe9dGYKsY6eeyEz0CZ78-2">
          <mxGeometry relative="1" as="geometry" />
        </mxCell>
        <mxCell id="Fe9dGYKsY6eeyEz0CZ78-1" value="&lt;font style=&quot;font-size: 23px;&quot;&gt;شروع&lt;/font&gt;" style="ellipse;whiteSpace=wrap;html=1;fillColor=#e51400;fontColor=#ffffff;strokeColor=#B20000;" vertex="1" parent="1">
          <mxGeometry x="365" y="10" width="120" height="80" as="geometry" />
        </mxCell>
        <mxCell id="Fe9dGYKsY6eeyEz0CZ78-5" value="" style="edgeStyle=orthogonalEdgeStyle;rounded=0;orthogonalLoop=1;jettySize=auto;html=1;" edge="1" parent="1" source="Fe9dGYKsY6eeyEz0CZ78-2" target="Fe9dGYKsY6eeyEz0CZ78-4">
          <mxGeometry relative="1" as="geometry" />
        </mxCell>
        <mxCell id="Fe9dGYKsY6eeyEz0CZ78-2" value="&lt;font style=&quot;font-size: 21px;&quot;&gt;i = 0&lt;br&gt;s = 0&lt;/font&gt;" style="rounded=0;whiteSpace=wrap;html=1;fillColor=#e3c800;fontColor=#000000;strokeColor=#B09500;" vertex="1" parent="1">
          <mxGeometry x="365" y="110" width="120" height="60" as="geometry" />
        </mxCell>
        <mxCell id="Fe9dGYKsY6eeyEz0CZ78-7" value="" style="edgeStyle=orthogonalEdgeStyle;rounded=0;orthogonalLoop=1;jettySize=auto;html=1;" edge="1" parent="1" source="Fe9dGYKsY6eeyEz0CZ78-4" target="Fe9dGYKsY6eeyEz0CZ78-6">
          <mxGeometry relative="1" as="geometry" />
        </mxCell>
        <mxCell id="Fe9dGYKsY6eeyEz0CZ78-4" value="&lt;div style=&quot;direction: rtl;&quot;&gt;&lt;span style=&quot;background-color: initial;&quot;&gt;&lt;font style=&quot;font-size: 21px;&quot;&gt;nرا بگیر&lt;/font&gt;&lt;/span&gt;&lt;/div&gt;" style="shape=parallelogram;perimeter=parallelogramPerimeter;whiteSpace=wrap;html=1;fixedSize=1;fillColor=#76608a;fontColor=#ffffff;strokeColor=#432D57;" vertex="1" parent="1">
          <mxGeometry x="365" y="200" width="120" height="60" as="geometry" />
        </mxCell>
        <mxCell id="Fe9dGYKsY6eeyEz0CZ78-10" value="" style="edgeStyle=orthogonalEdgeStyle;rounded=0;orthogonalLoop=1;jettySize=auto;html=1;" edge="1" parent="1" source="Fe9dGYKsY6eeyEz0CZ78-6" target="Fe9dGYKsY6eeyEz0CZ78-8">
          <mxGeometry relative="1" as="geometry" />
        </mxCell>
        <mxCell id="Fe9dGYKsY6eeyEz0CZ78-6" value="&lt;font style=&quot;font-size: 18px;&quot;&gt;s = s + n&lt;br&gt;i = i + 1&lt;/font&gt;" style="rounded=0;whiteSpace=wrap;html=1;fillColor=#f0a30a;fontColor=#000000;strokeColor=#BD7000;" vertex="1" parent="1">
          <mxGeometry x="365" y="280" width="120" height="60" as="geometry" />
        </mxCell>
        <mxCell id="Fe9dGYKsY6eeyEz0CZ78-9" style="edgeStyle=orthogonalEdgeStyle;rounded=0;orthogonalLoop=1;jettySize=auto;html=1;entryX=0;entryY=0.25;entryDx=0;entryDy=0;" edge="1" parent="1" source="Fe9dGYKsY6eeyEz0CZ78-8" target="Fe9dGYKsY6eeyEz0CZ78-4">
          <mxGeometry relative="1" as="geometry">
            <Array as="points">
              <mxPoint x="190" y="420" />
              <mxPoint x="190" y="219" />
            </Array>
          </mxGeometry>
        </mxCell>
        <mxCell id="Fe9dGYKsY6eeyEz0CZ78-12" value="" style="edgeStyle=orthogonalEdgeStyle;rounded=0;orthogonalLoop=1;jettySize=auto;html=1;" edge="1" parent="1" source="Fe9dGYKsY6eeyEz0CZ78-8" target="Fe9dGYKsY6eeyEz0CZ78-11">
          <mxGeometry relative="1" as="geometry" />
        </mxCell>
        <mxCell id="Fe9dGYKsY6eeyEz0CZ78-8" value="&lt;font style=&quot;font-size: 21px;&quot;&gt;i&amp;lt;5&lt;/font&gt;" style="rhombus;whiteSpace=wrap;html=1;fillColor=#6d8764;fontColor=#ffffff;strokeColor=#3A5431;" vertex="1" parent="1">
          <mxGeometry x="385" y="380" width="80" height="80" as="geometry" />
        </mxCell>
        <mxCell id="Fe9dGYKsY6eeyEz0CZ78-16" value="" style="edgeStyle=orthogonalEdgeStyle;rounded=0;orthogonalLoop=1;jettySize=auto;html=1;" edge="1" parent="1" source="Fe9dGYKsY6eeyEz0CZ78-11" target="Fe9dGYKsY6eeyEz0CZ78-15">
          <mxGeometry relative="1" as="geometry" />
        </mxCell>
        <mxCell id="Fe9dGYKsY6eeyEz0CZ78-11" value="&lt;div style=&quot;direction: rtl;&quot;&gt;&lt;span style=&quot;background-color: initial;&quot;&gt;&lt;font style=&quot;font-size: 20px;&quot;&gt;s را نمایش بده&lt;/font&gt;&lt;/span&gt;&lt;/div&gt;" style="shape=document;whiteSpace=wrap;html=1;boundedLbl=1;fillColor=#fad9d5;strokeColor=#ae4132;" vertex="1" parent="1">
          <mxGeometry x="365" y="490" width="120" height="80" as="geometry" />
        </mxCell>
        <mxCell id="Fe9dGYKsY6eeyEz0CZ78-13" value="&lt;font style=&quot;font-size: 20px;&quot;&gt;بله&lt;/font&gt;" style="text;html=1;strokeColor=none;fillColor=none;align=center;verticalAlign=middle;whiteSpace=wrap;rounded=0;" vertex="1" parent="1">
          <mxGeometry x="250" y="390" width="60" height="30" as="geometry" />
        </mxCell>
        <mxCell id="Fe9dGYKsY6eeyEz0CZ78-14" value="&lt;font style=&quot;font-size: 20px;&quot;&gt;خیر&lt;/font&gt;" style="text;html=1;strokeColor=none;fillColor=none;align=center;verticalAlign=middle;whiteSpace=wrap;rounded=0;" vertex="1" parent="1">
          <mxGeometry x="440" y="460" width="60" height="30" as="geometry" />
        </mxCell>
        <mxCell id="Fe9dGYKsY6eeyEz0CZ78-15" value="&lt;font style=&quot;font-size: 23px;&quot;&gt;پایان&lt;/font&gt;" style="ellipse;whiteSpace=wrap;html=1;fillColor=#e51400;fontColor=#ffffff;strokeColor=#B20000;" vertex="1" parent="1">
          <mxGeometry x="365" y="590" width="120" height="80" as="geometry" />
        </mxCell>
      </root>
    </mxGraphModel>
  </diagram>
</mxfile>
